<svg width="729" height="178" xmlns="http://www.w3.org/2000/svg">
  <g fill="none" fill-rule="evenodd">
    <path d="M441.48 0h-17.56v13.31H375.1V0h-17.76v13.31h-48.8V0H290.6c-4.17 86.77 4.38 116.26-.44 177.5h151.77c3.71-42.6-3.3-89.36-.45-177.5z"/>
    <path d="M441.48 0h-17.56v13.31H375.1V0h-17.76v13.31h-48.8V0H290.6c-4.17 86.77 4.38 116.26-.44 177.5h75.12c.72-16.29.3-35.76 1.4-63.18 1.23 23.2 1.88 44.79 1.53 63.18h73.72c3.71-42.6-3.3-89.36-.45-177.5z" fill="#10233D" fill-rule="nonzero"/>
    <path d="M308.35 0h-17.6v13.31h-48.78V0h-17.74v13.31H175.4V0h-17.94c-4.16 86.77 4.37 116.26-.44 177.5h151.76c3.72-42.6-3.3-89.36-.44-177.5z"/>
    <path d="M308.35 0h-17.6v13.31h-48.78V0h-17.74v13.31H175.4V0h-17.94c-4.16 86.77 4.37 116.26-.44 177.5h75.12c.73-16.29.31-35.76 1.4-63.18 1.24 23.2 1.89 44.79 1.54 63.18h73.7c3.72-42.6-3.3-89.36-.44-177.5z" fill="#10233D" fill-rule="nonzero"/>
    <path d="M175.22 0h-17.55v13.31h-48.82V0H91.1v13.31H42.3V0H24.34c-4.16 86.77 4.38 116.26-.44 177.5h151.77c3.71-42.6-3.3-89.36-.45-177.5z"/>
    <path d="M175.22 0h-17.55v13.31h-48.82V0H91.1v13.31H42.3V0H24.34c-4.16 86.77 4.38 116.26-.44 177.5h75.13c.71-16.29.3-35.76 1.39-63.18 1.23 23.2 1.88 44.79 1.53 63.18h73.72c3.71-42.6-3.3-89.36-.45-177.5z" fill="#10233D" fill-rule="nonzero"/>
    <path d="M574.61 0h-17.57v13.31h-48.8V0h-17.75v13.31h-48.82V0h-17.94c-4.16 86.77 4.37 116.26-.44 177.5h151.76c3.72-42.6-3.3-89.36-.44-177.5z"/>
    <path d="M574.61 0h-17.57v13.31h-48.8V0h-17.75v13.31h-48.82V0h-17.94c-4.16 86.77 4.37 116.26-.44 177.5h75.12c.72-16.29.31-35.76 1.4-63.18 1.24 23.2 1.92 44.79 1.53 63.18h73.71c3.72-42.6-3.3-89.36-.44-177.5z" fill="#10233D" fill-rule="nonzero"/>
    <path d="M708.18 0h-17.52v13.31H641.8V0h-17.75v13.31h-48.82V0h-17.93c-4.17 86.77 4.36 116.26-.46 177.5h151.78c3.72-42.6-3.3-89.36-.45-177.5z"/>
    <path d="M708.18 0h-17.52v13.31H641.8V0h-17.75v13.31h-48.82V0h-17.93c-4.17 86.77 4.36 116.26-.46 177.5h75.13c.72-16.29.31-35.76 1.4-63.18 1.23 23.2 1.88 44.79 1.54 63.18h73.7c3.73-42.6-3.3-89.36-.44-177.5z" fill="#10233D" fill-rule="nonzero"/>
    <path d="M401.43 100.78l-1.54-.9-1.23-.7-.28-.17a33.95 33.95 0 110-28.5l.28-.16 3.07-1.77a41.28 41.28 0 100 32.37l-.3-.17zm-75.46-16a37.82 37.82 0 0143.04-37.41h-1.43a37.46 37.46 0 000 74.92c.48 0 .94 0 1.43-.06a37.82 37.82 0 01-43.04-37.47v.02z" fill="#FFF" fill-rule="nonzero"/>
    <path d="M363.72 94.94h-5.76l-1.53-3.76h-8.12l-1.55 3.76h-5.78l8.27-18.72h6.23l8.24 18.72zm-8.59-7.05l-2.73-6.83-2.77 6.83h5.5zM410.61 75.51l-7.38 10.2v8.63h-5.64v-8.52l-7.53-10.35h5.9l4.32 5.92 4.33-5.88zM368.1 94.94V80.3h-1.95v-4.76h7.12v19.41zM381.2 94.94V80.3h-1.96v-4.76h7.12v19.41z" fill="#FFF" fill-rule="nonzero"/>
    <path d="M350.89 9.23c1.46.1 1.8.55 2.62.49.81-.06 1.06-.68 1.06-1.32V5.35c0-.64-.25-1.27-1.06-1.31-.82-.05-1.16.38-2.62.49H315c-1.45-.1-1.79-.55-2.6-.5-.82.06-1.07.68-1.07 1.32V8.4c0 .64.25 1.27 1.07 1.32.81.05 1.15-.39 2.6-.49.56-.03 35.34-.03 35.89 0zM16.87 9.23c1.32.1 1.62.55 2.35.49.74-.06.94-.68.94-1.32V5.35c0-.64-.22-1.27-.94-1.31-.71-.05-1.03.38-2.35.49H3.31C2 4.43 1.7 3.98.94 4.03.2 4.1 0 4.7 0 5.36V8.4c0 .64.22 1.27.94 1.32.73.05 1.04-.39 2.35-.49.47-.03 13.1-.03 13.58 0zM284.33 9.23c1.46.1 1.8.55 2.61.49.82-.06 1.07-.68 1.07-1.32V5.35c0-.64-.25-1.27-1.07-1.31-.82-.05-1.15.38-2.61.49h-35.9c-1.45-.1-1.78-.55-2.6-.5-.82.06-1.06.68-1.06 1.32V8.4c0 .64.24 1.27 1.06 1.32.82.05 1.15-.39 2.6-.49.55-.03 35.35-.03 35.9 0zM217.76 9.23c1.46.1 1.8.55 2.62.49.83-.06 1.05-.68 1.05-1.32V5.35c0-.64-.23-1.27-1.05-1.31-.82-.05-1.16.38-2.62.49h-35.88c-1.46-.1-1.8-.55-2.61-.5-.82.06-1.06.68-1.06 1.32V8.4c0 .64.23 1.27 1.06 1.32.83.05 1.15-.39 2.6-.49.55-.03 35.35-.03 35.9 0zM151.2 9.23c1.46.1 1.79.55 2.6.49.83-.06 1.07-.68 1.07-1.32V5.35c0-.64-.24-1.27-1.06-1.31-.82-.05-1.15.38-2.6.49h-35.9c-1.46-.1-1.8-.55-2.61-.5-.82.06-1.07.68-1.07 1.32V8.4c0 .64.25 1.27 1.07 1.32.82.05 1.15-.39 2.61-.49.55-.03 35.35-.03 35.9 0zM84.69 9.23c1.45.1 1.78.55 2.6.49.82-.06 1.07-.68 1.07-1.32V5.35c0-.64-.25-1.27-1.07-1.31-.82-.05-1.2.38-2.6.49h-35.9c-1.5-.1-1.84-.55-2.68-.5-.85.06-1.04.67-1.04 1.32V8.4c0 .64.25 1.27 1.06 1.32.82.05 1.16-.39 2.62-.49.55-.03 35.33-.03 35.94 0zM381.31 9.23c-1.46.1-1.79.55-2.6.49-.82-.06-1.07-.68-1.07-1.32V5.35c0-.64.25-1.27 1.06-1.31.82-.05 1.15.38 2.61.49h35.89c1.46-.1 1.8-.55 2.61-.5.82.06 1.07.68 1.07 1.32V8.4c0 .64-.25 1.27-1.07 1.32-.81.05-1.15-.39-2.61-.49-.55-.03-35.33-.03-35.89 0zM715.33 9.23c-1.3.1-1.61.55-2.34.49-.74-.06-.94-.68-.94-1.32V5.35c0-.64.21-1.27.94-1.31.72-.05 1.03.38 2.34.49h13.57c1.31-.1 1.6-.55 2.35-.5.74.06.94.68.94 1.32V8.4c0 .64-.23 1.27-.94 1.32-.72.05-1.04-.39-2.35-.49a1087 1087 0 00-13.57 0zM447.9 9.23c-1.46.1-1.8.55-2.61.49-.82-.06-1.07-.68-1.07-1.32V5.35c0-.64.25-1.27 1.07-1.31.81-.05 1.15.38 2.6.49h35.89c1.46-.1 1.8-.55 2.62-.5.81.06 1.01.67 1.01 1.32V8.4c0 .64-.24 1.27-1.06 1.32-.82.05-1.16-.39-2.62-.49-.51-.03-35.3-.03-35.84 0zM514.45 9.23c-1.46.1-1.8.55-2.62.49-.82-.06-1.06-.68-1.06-1.32V5.35c0-.64.24-1.27 1.06-1.31.82-.05 1.16.38 2.62.49h35.88c1.45-.1 1.8-.55 2.61-.5.82.06 1.06.68 1.06 1.32V8.4c0 .64-.24 1.27-1.06 1.32-.82.05-1.16-.39-2.6-.49-.56-.03-35.35-.03-35.9 0zM581 9.23c-1.45.1-1.79.55-2.6.49-.83-.06-1.07-.68-1.07-1.32V5.35c0-.64.24-1.27 1.06-1.31.82-.05 1.16.38 2.62.49h35.89c1.45-.1 1.78-.55 2.6-.5.82.06 1.07.68 1.07 1.32V8.4c0 .64-.25 1.27-1.07 1.32-.82.05-1.15-.39-2.6-.49-.58-.03-35.35-.03-35.9 0zM647.57 9.23c-1.46.1-1.79.55-2.61.49-.83-.06-1.07-.68-1.07-1.32V5.35c0-.64.25-1.27 1.07-1.31.81-.05 1.15.38 2.61.49h35.89c1.46-.1 1.79-.55 2.6-.5.82.06 1.07.68 1.07 1.32V8.4c0 .64-.24 1.27-1.06 1.32-.83.05-1.15-.39-2.61-.49-.55-.03-35.34-.03-35.89 0z" fill="#B06F30" fill-rule="nonzero"/>
  </g>
</svg>
